<svg width="44" height="44" viewBox="0 0 44 44" fill="none" xmlns="http://www.w3.org/2000/svg">
    <path fill-rule="evenodd" clip-rule="evenodd"
        d="M27.3764 37.5261C32.6183 37.5261 36.8677 33.2767 36.8677 28.0348C36.8677 22.793 32.6183 18.5436 27.3764 18.5436C22.1345 18.5436 17.8851 22.793 17.8851 28.0348C17.8851 33.2767 22.1345 37.5261 27.3764 37.5261ZM27.3764 41.9151C35.0423 41.9151 41.2567 35.7007 41.2567 28.0348C41.2567 20.369 35.0423 14.1545 27.3764 14.1545C19.7105 14.1545 13.4961 20.369 13.4961 28.0348C13.4961 35.7007 19.7105 41.9151 27.3764 41.9151Z"
        fill="white" />
    <path fill-rule="evenodd" clip-rule="evenodd"
        d="M37.3279 6.21823C39.7559 8.57677 41.6413 11.4907 42.7794 14.755C39.416 11.4646 34.8127 9.43633 29.7358 9.43633C20.2519 9.43633 12.421 16.5141 11.2373 25.6757C11.1351 24.8855 11.0825 24.0798 11.0825 23.2618C11.0825 12.9598 19.4339 4.6084 29.7358 4.6084C32.4394 4.6084 35.0087 5.18357 37.3279 6.21823Z"
        fill="white" />
    <path fill-rule="evenodd" clip-rule="evenodd"
        d="M43.3112 27.4825C43.7608 25.7299 43.9998 23.8928 43.9998 22C43.9998 20.4935 43.8484 19.0223 43.5599 17.6009C40.4705 14.1057 36.0745 11.758 31.0569 11.3609C30.2414 11.2963 29.4341 11.2852 28.6382 11.3247C36.5212 12.9842 42.4255 19.5577 43.3112 27.4825Z"
        fill="white" />
    <path fill-rule="evenodd" clip-rule="evenodd"
        d="M33.8709 3.47431C32.4 3.13942 30.869 2.96259 29.2968 2.96259C17.9646 2.96259 8.77806 12.1491 8.77806 23.4813C8.77806 33.5908 16.0893 41.9928 25.7127 43.688C24.5057 43.8932 23.2653 44 22 44C9.84976 44 0 34.1503 0 22C0 9.84973 9.84976 0 22 0C26.372 0 30.4463 1.27535 33.8709 3.47431Z"
        fill="white" />
</svg>