<svg class="" width="147" height="44" fill="black"><path fill-rule="evenodd" clip-rule="evenodd" d="M27.3765 37.5261C32.6184 37.5261 36.8678 33.2767 36.8678 28.0348C36.8678 22.793 32.6184 18.5436 27.3765 18.5436C22.1346 18.5436 17.8852 22.793 17.8852 28.0348C17.8852 33.2767 22.1346 37.5261 27.3765 37.5261ZM27.3765 41.9151C35.0424 41.9151 41.2568 35.7007 41.2568 28.0348C41.2568 20.369 35.0424 14.1545 27.3765 14.1545C19.7106 14.1545 13.4962 20.369 13.4962 28.0348C13.4962 35.7007 19.7106 41.9151 27.3765 41.9151Z" fill="black"></path><path fill-rule="evenodd" clip-rule="evenodd" d="M37.3277 6.21823C39.7557 8.57677 41.6411 11.4907 42.7792 14.755C39.4158 11.4646 34.8125 9.43633 29.7356 9.43633C20.2517 9.43633 12.4208 16.5141 11.2371 25.6757C11.1349 24.8855 11.0823 24.0798 11.0823 23.2618C11.0823 12.9598 19.4337 4.6084 29.7356 4.6084C32.4392 4.6084 35.0085 5.18357 37.3277 6.21823Z" fill="black"></path><path fill-rule="evenodd" clip-rule="evenodd" d="M43.3114 27.4825C43.761 25.7299 44 23.8928 44 22C44 20.4935 43.8486 19.0223 43.5601 17.6009C40.4707 14.1057 36.0747 11.758 31.0571 11.3609C30.2416 11.2963 29.4343 11.2852 28.6384 11.3247C36.5214 12.9842 42.4257 19.5577 43.3114 27.4825Z" fill="black"></path><path fill-rule="evenodd" clip-rule="evenodd" d="M33.8709 3.47431C32.4 3.13942 30.869 2.96259 29.2968 2.96259C17.9646 2.96259 8.77806 12.1491 8.77806 23.4813C8.77806 33.5908 16.0893 41.9928 25.7127 43.688C24.5057 43.8932 23.2653 44 22 44C9.84976 44 0 34.1503 0 22C0 9.84973 9.84976 0 22 0C26.372 0 30.4463 1.27535 33.8709 3.47431Z" fill="black"></path><path d="M53.7656 18.7063H69.1635V22.3534H53.7656V18.7063ZM63.5532 13.114H69.1635V17.0043H65.9819C65.3343 16.9881 64.8323 17.0205 64.4761 17.1015C64.1361 17.1826 63.8932 17.3447 63.7475 17.5878C63.618 17.831 63.5532 18.2038 63.5532 18.7063V29.8908H57.7243V17.4906C57.7243 16.518 57.9024 15.7075 58.2587 15.0592C58.6311 14.4108 59.2382 13.9245 60.0802 13.6003C60.9383 13.2761 62.096 13.114 63.5532 13.114Z" fill="black"></path><path d="M70.738 17.9769H76.5669V29.8908H70.738V17.9769ZM82.8329 22.475C81.7805 22.475 80.8171 22.5722 79.9427 22.7668C79.0684 22.9613 78.3236 23.1963 77.7083 23.4719C77.0931 23.7312 76.6316 23.9906 76.324 24.2499L76.2754 23.0828C76.324 22.7424 76.4535 22.3453 76.664 21.8914C76.8745 21.4214 77.1578 20.9432 77.514 20.4569C77.8703 19.9544 78.3074 19.4924 78.8255 19.071C79.3437 18.6333 79.9347 18.2848 80.5985 18.0255C81.2785 17.7499 82.0233 17.6121 82.8329 17.6121V22.475Z" fill="black"></path><path d="M93.2393 30.2312C91.4906 30.2312 89.9363 29.9881 88.5762 29.5018C87.2161 28.9993 86.1394 28.278 85.346 27.3378C84.5688 26.3977 84.1803 25.263 84.1803 23.9338C84.1803 22.5398 84.5688 21.3727 85.346 20.4326C86.1394 19.4924 87.2161 18.7873 88.5762 18.3173C89.9363 17.8472 91.4906 17.6121 93.2393 17.6121C95.1823 17.6121 96.8581 17.8796 98.2667 18.4145C99.6915 18.9332 100.784 19.6707 101.545 20.6271C102.323 21.5673 102.711 22.6695 102.711 23.9338C102.711 24.874 102.493 25.7331 102.055 26.5111C101.618 27.273 100.987 27.9376 100.161 28.5049C99.3353 29.056 98.3396 29.4856 97.1738 29.7936C96.008 30.0853 94.6965 30.2312 93.2393 30.2312ZM95.4251 26.5355C96.6557 26.5355 97.781 26.4625 98.801 26.3166C99.8373 26.1545 100.663 25.8871 101.278 25.5143C101.91 25.1414 102.225 24.6146 102.225 23.9338C102.225 23.2368 101.91 22.7019 101.278 22.3291C100.663 21.9563 99.8373 21.6969 98.801 21.551C97.781 21.4052 96.6557 21.3322 95.4251 21.3322C93.7736 21.3322 92.4945 21.551 91.5878 21.9887C90.6811 22.4101 90.2277 23.0585 90.2277 23.9338C90.2277 24.5012 90.4301 24.9794 90.8349 25.3684C91.2397 25.7574 91.8306 26.0492 92.6078 26.2437C93.385 26.4382 94.3241 26.5355 95.4251 26.5355ZM102.225 17.9769H108.054V29.8908H102.565C102.565 29.8908 102.533 29.7044 102.468 29.3316C102.42 28.9588 102.363 28.4239 102.298 27.7269C102.25 27.0299 102.225 26.2113 102.225 25.2711V17.9769Z" fill="black"></path><path d="M110.495 13.114H116.323V29.8908H110.495V13.114ZM131.09 17.9769L121.472 24.6633L121.594 21.5024L131.916 29.8908H124.532L116.421 23.1072L123.367 17.9769H131.09Z" fill="black"></path><path d="M132.532 17.9769H146.813V21.624H132.532V17.9769ZM136.758 14.3297H142.587V29.8908H136.758V14.3297Z" fill="black"></path></svg>
